# xmcd
#
# Track frame offsets:
#	150
#	12826
#	25027
#	37899
#	57696
#	73572
#	87815
#	104315
#	118138
#	135936
#	145968
#	163256
#	175746
#	190096
#
# Disc length: 2702 seconds
#
# Revision: 0
# Processed by: cddbd v1.5.1PL0 Copyright (c) Steve Scherf et al.
# Submitted via: audiograbber 1.83.01
#
DISCID=b70a8c0e
DTITLE=Walker, Clay - Greatest Hits - Walker, Clay - Greatest Hits
DYEAR=1998
DGENRE=Country
TTITLE0=What's It To You
TTITLE1=You're Beginning To Get To Me
TTITLE2=Live Until I Die
TTITLE3=This Woman And This Man
TTITLE4=Dreaming With My Eyes Open
TTITLE5=Rumor Has It
TTITLE6=Hypnotize The Moon
TTITLE7=Then What
TTITLE8=Where Do I Fit In The Picture
TTITLE9=If I Could Make A Living
TTITLE10=Ordinary People
TTITLE11=Only On Days That End In "Y"
TTITLE12=Watch This
TTITLE13=Who Needs You Baby
EXTD=
EXTT0=
EXTT1=
EXTT2=
EXTT3=
EXTT4=
EXTT5=
EXTT6=
EXTT7=
EXTT8=
EXTT9=
EXTT10=
EXTT11=
EXTT12=
EXTT13=
PLAYORDER=
